<mxfile host="app.diagrams.net" agent="Mozilla/5.0 (Windows NT 10.0; Win64; x64; rv:132.0) Gecko/20100101 Firefox/132.0" version="24.8.8">
  <diagram name="Page-1" id="71JKjrLyVViWWQ_PjsFr">
    <mxGraphModel dx="1687" dy="920" grid="1" gridSize="10" guides="1" tooltips="1" connect="1" arrows="1" fold="1" page="1" pageScale="1" pageWidth="827" pageHeight="1169" math="0" shadow="0">
      <root>
        <mxCell id="0" />
        <mxCell id="1" parent="0" />
        <mxCell id="nzNgzzk2PfuI0494MfuY-5" style="edgeStyle=orthogonalEdgeStyle;rounded=0;orthogonalLoop=1;jettySize=auto;html=1;" edge="1" parent="1" source="nzNgzzk2PfuI0494MfuY-1" target="nzNgzzk2PfuI0494MfuY-4">
          <mxGeometry relative="1" as="geometry" />
        </mxCell>
        <mxCell id="nzNgzzk2PfuI0494MfuY-7" style="edgeStyle=orthogonalEdgeStyle;rounded=0;orthogonalLoop=1;jettySize=auto;html=1;" edge="1" parent="1" source="nzNgzzk2PfuI0494MfuY-1" target="nzNgzzk2PfuI0494MfuY-8">
          <mxGeometry relative="1" as="geometry">
            <mxPoint x="240" y="140" as="targetPoint" />
          </mxGeometry>
        </mxCell>
        <mxCell id="nzNgzzk2PfuI0494MfuY-14" style="edgeStyle=orthogonalEdgeStyle;rounded=0;orthogonalLoop=1;jettySize=auto;html=1;entryX=0;entryY=0.5;entryDx=0;entryDy=0;" edge="1" parent="1" source="nzNgzzk2PfuI0494MfuY-1" target="nzNgzzk2PfuI0494MfuY-15">
          <mxGeometry relative="1" as="geometry">
            <mxPoint x="110" y="220" as="targetPoint" />
            <Array as="points">
              <mxPoint x="110" y="220" />
            </Array>
          </mxGeometry>
        </mxCell>
        <mxCell id="nzNgzzk2PfuI0494MfuY-16" style="edgeStyle=orthogonalEdgeStyle;rounded=0;orthogonalLoop=1;jettySize=auto;html=1;" edge="1" parent="1" source="nzNgzzk2PfuI0494MfuY-1" target="nzNgzzk2PfuI0494MfuY-17">
          <mxGeometry relative="1" as="geometry">
            <mxPoint x="110" y="320" as="targetPoint" />
            <Array as="points">
              <mxPoint x="110" y="310" />
            </Array>
          </mxGeometry>
        </mxCell>
        <mxCell id="nzNgzzk2PfuI0494MfuY-1" value="main" style="whiteSpace=wrap;html=1;aspect=fixed;" vertex="1" parent="1">
          <mxGeometry x="70" y="60" width="80" height="80" as="geometry" />
        </mxCell>
        <mxCell id="nzNgzzk2PfuI0494MfuY-4" value="grid::populateGridArr" style="rounded=0;whiteSpace=wrap;html=1;" vertex="1" parent="1">
          <mxGeometry x="240" y="30" width="120" height="60" as="geometry" />
        </mxCell>
        <mxCell id="nzNgzzk2PfuI0494MfuY-8" value="&lt;div&gt;grid::setGridOffset&lt;/div&gt;" style="rounded=0;whiteSpace=wrap;html=1;" vertex="1" parent="1">
          <mxGeometry x="240" y="110" width="120" height="60" as="geometry" />
        </mxCell>
        <mxCell id="nzNgzzk2PfuI0494MfuY-15" value="&lt;div&gt;ui::initUI&lt;/div&gt;" style="rounded=0;whiteSpace=wrap;html=1;" vertex="1" parent="1">
          <mxGeometry x="240" y="200" width="120" height="60" as="geometry" />
        </mxCell>
        <mxCell id="nzNgzzk2PfuI0494MfuY-19" value="" style="edgeStyle=orthogonalEdgeStyle;rounded=0;orthogonalLoop=1;jettySize=auto;html=1;" edge="1" parent="1" source="nzNgzzk2PfuI0494MfuY-17" target="nzNgzzk2PfuI0494MfuY-18">
          <mxGeometry relative="1" as="geometry">
            <Array as="points">
              <mxPoint x="400" y="310" />
              <mxPoint x="400" y="230" />
            </Array>
          </mxGeometry>
        </mxCell>
        <mxCell id="nzNgzzk2PfuI0494MfuY-20" style="edgeStyle=orthogonalEdgeStyle;rounded=0;orthogonalLoop=1;jettySize=auto;html=1;" edge="1" parent="1" source="nzNgzzk2PfuI0494MfuY-17">
          <mxGeometry relative="1" as="geometry">
            <mxPoint x="440" y="310" as="targetPoint" />
          </mxGeometry>
        </mxCell>
        <mxCell id="nzNgzzk2PfuI0494MfuY-17" value="&lt;div&gt;gameLoop&lt;/div&gt;" style="rounded=0;whiteSpace=wrap;html=1;" vertex="1" parent="1">
          <mxGeometry x="240" y="280" width="120" height="60" as="geometry" />
        </mxCell>
        <mxCell id="nzNgzzk2PfuI0494MfuY-48" style="edgeStyle=orthogonalEdgeStyle;rounded=0;orthogonalLoop=1;jettySize=auto;html=1;" edge="1" parent="1" source="nzNgzzk2PfuI0494MfuY-18" target="nzNgzzk2PfuI0494MfuY-49">
          <mxGeometry relative="1" as="geometry">
            <mxPoint x="500" y="160" as="targetPoint" />
          </mxGeometry>
        </mxCell>
        <mxCell id="nzNgzzk2PfuI0494MfuY-18" value="checkPlrInput" style="whiteSpace=wrap;html=1;rounded=0;" vertex="1" parent="1">
          <mxGeometry x="440" y="200" width="120" height="60" as="geometry" />
        </mxCell>
        <mxCell id="nzNgzzk2PfuI0494MfuY-23" value="" style="edgeStyle=orthogonalEdgeStyle;rounded=0;orthogonalLoop=1;jettySize=auto;html=1;" edge="1" parent="1" source="nzNgzzk2PfuI0494MfuY-21" target="nzNgzzk2PfuI0494MfuY-22">
          <mxGeometry relative="1" as="geometry" />
        </mxCell>
        <mxCell id="nzNgzzk2PfuI0494MfuY-21" value="grid::doRecipies" style="rounded=0;whiteSpace=wrap;html=1;" vertex="1" parent="1">
          <mxGeometry x="440" y="280" width="120" height="60" as="geometry" />
        </mxCell>
        <mxCell id="nzNgzzk2PfuI0494MfuY-27" style="edgeStyle=orthogonalEdgeStyle;rounded=0;orthogonalLoop=1;jettySize=auto;html=1;entryX=0;entryY=0.5;entryDx=0;entryDy=0;" edge="1" parent="1" source="nzNgzzk2PfuI0494MfuY-22" target="nzNgzzk2PfuI0494MfuY-26">
          <mxGeometry relative="1" as="geometry" />
        </mxCell>
        <mxCell id="nzNgzzk2PfuI0494MfuY-22" value="gridEnt::advanceCurrentRecipe" style="whiteSpace=wrap;html=1;rounded=0;" vertex="1" parent="1">
          <mxGeometry x="440" y="380" width="200" height="60" as="geometry" />
        </mxCell>
        <mxCell id="nzNgzzk2PfuI0494MfuY-24" value="recipe::checkIfIputsPresent" style="whiteSpace=wrap;html=1;rounded=0;" vertex="1" parent="1">
          <mxGeometry x="650" y="270" width="160" height="60" as="geometry" />
        </mxCell>
        <mxCell id="nzNgzzk2PfuI0494MfuY-28" style="edgeStyle=orthogonalEdgeStyle;rounded=0;orthogonalLoop=1;jettySize=auto;html=1;entryX=0.5;entryY=1;entryDx=0;entryDy=0;" edge="1" parent="1" source="nzNgzzk2PfuI0494MfuY-26" target="nzNgzzk2PfuI0494MfuY-24">
          <mxGeometry relative="1" as="geometry" />
        </mxCell>
        <mxCell id="nzNgzzk2PfuI0494MfuY-29" value="No" style="edgeLabel;html=1;align=center;verticalAlign=middle;resizable=0;points=[];" vertex="1" connectable="0" parent="nzNgzzk2PfuI0494MfuY-28">
          <mxGeometry x="0.2" y="1" relative="1" as="geometry">
            <mxPoint as="offset" />
          </mxGeometry>
        </mxCell>
        <mxCell id="nzNgzzk2PfuI0494MfuY-30" style="edgeStyle=orthogonalEdgeStyle;rounded=0;orthogonalLoop=1;jettySize=auto;html=1;entryX=0.5;entryY=0;entryDx=0;entryDy=0;" edge="1" parent="1" source="nzNgzzk2PfuI0494MfuY-26" target="nzNgzzk2PfuI0494MfuY-32">
          <mxGeometry relative="1" as="geometry">
            <mxPoint x="730" y="490" as="targetPoint" />
          </mxGeometry>
        </mxCell>
        <mxCell id="nzNgzzk2PfuI0494MfuY-31" value="Yes" style="edgeLabel;html=1;align=center;verticalAlign=middle;resizable=0;points=[];" vertex="1" connectable="0" parent="nzNgzzk2PfuI0494MfuY-30">
          <mxGeometry x="-0.3874" y="4" relative="1" as="geometry">
            <mxPoint x="-4" y="-12" as="offset" />
          </mxGeometry>
        </mxCell>
        <mxCell id="nzNgzzk2PfuI0494MfuY-26" value="&lt;div&gt;recipe currently&lt;/div&gt;&lt;div&gt;running&lt;br&gt;&lt;/div&gt;" style="rhombus;whiteSpace=wrap;html=1;" vertex="1" parent="1">
          <mxGeometry x="690" y="365" width="80" height="90" as="geometry" />
        </mxCell>
        <mxCell id="nzNgzzk2PfuI0494MfuY-38" style="edgeStyle=orthogonalEdgeStyle;rounded=0;orthogonalLoop=1;jettySize=auto;html=1;" edge="1" parent="1" source="nzNgzzk2PfuI0494MfuY-32" target="nzNgzzk2PfuI0494MfuY-37">
          <mxGeometry relative="1" as="geometry" />
        </mxCell>
        <mxCell id="nzNgzzk2PfuI0494MfuY-32" value="&lt;div&gt;recipe complete&lt;/div&gt;" style="rhombus;whiteSpace=wrap;html=1;" vertex="1" parent="1">
          <mxGeometry x="690" y="480" width="80" height="90" as="geometry" />
        </mxCell>
        <mxCell id="nzNgzzk2PfuI0494MfuY-37" value="gridEnt::addItem" style="rounded=0;whiteSpace=wrap;html=1;" vertex="1" parent="1">
          <mxGeometry x="670" y="590" width="120" height="60" as="geometry" />
        </mxCell>
        <mxCell id="nzNgzzk2PfuI0494MfuY-39" value="recipe::returnOutputItem" style="rounded=0;whiteSpace=wrap;html=1;" vertex="1" parent="1">
          <mxGeometry x="670" y="680" width="140" height="60" as="geometry" />
        </mxCell>
        <mxCell id="nzNgzzk2PfuI0494MfuY-40" style="edgeStyle=orthogonalEdgeStyle;rounded=0;orthogonalLoop=1;jettySize=auto;html=1;entryX=0.493;entryY=0.056;entryDx=0;entryDy=0;entryPerimeter=0;" edge="1" parent="1" source="nzNgzzk2PfuI0494MfuY-37" target="nzNgzzk2PfuI0494MfuY-39">
          <mxGeometry relative="1" as="geometry" />
        </mxCell>
        <mxCell id="nzNgzzk2PfuI0494MfuY-43" value="" style="edgeStyle=orthogonalEdgeStyle;rounded=0;orthogonalLoop=1;jettySize=auto;html=1;" edge="1" parent="1" source="nzNgzzk2PfuI0494MfuY-1" target="nzNgzzk2PfuI0494MfuY-42">
          <mxGeometry relative="1" as="geometry">
            <mxPoint x="110" y="400" as="targetPoint" />
            <mxPoint x="110" y="140" as="sourcePoint" />
            <Array as="points">
              <mxPoint x="110" y="420" />
            </Array>
          </mxGeometry>
        </mxCell>
        <mxCell id="nzNgzzk2PfuI0494MfuY-45" style="edgeStyle=orthogonalEdgeStyle;rounded=0;orthogonalLoop=1;jettySize=auto;html=1;entryX=0.5;entryY=0;entryDx=0;entryDy=0;" edge="1" parent="1" source="nzNgzzk2PfuI0494MfuY-42" target="nzNgzzk2PfuI0494MfuY-44">
          <mxGeometry relative="1" as="geometry" />
        </mxCell>
        <mxCell id="nzNgzzk2PfuI0494MfuY-42" value="grid::drawGrid" style="rounded=0;whiteSpace=wrap;html=1;" vertex="1" parent="1">
          <mxGeometry x="240" y="380" width="120" height="60" as="geometry" />
        </mxCell>
        <mxCell id="nzNgzzk2PfuI0494MfuY-46" style="edgeStyle=orthogonalEdgeStyle;rounded=0;orthogonalLoop=1;jettySize=auto;html=1;" edge="1" parent="1" source="nzNgzzk2PfuI0494MfuY-44" target="nzNgzzk2PfuI0494MfuY-47">
          <mxGeometry relative="1" as="geometry">
            <mxPoint x="300" y="570" as="targetPoint" />
          </mxGeometry>
        </mxCell>
        <mxCell id="nzNgzzk2PfuI0494MfuY-44" value="gridSpace::drawGridSpace" style="rounded=0;whiteSpace=wrap;html=1;" vertex="1" parent="1">
          <mxGeometry x="220" y="480" width="160" height="60" as="geometry" />
        </mxCell>
        <mxCell id="nzNgzzk2PfuI0494MfuY-47" value="ent::renderEnt" style="rounded=0;whiteSpace=wrap;html=1;" vertex="1" parent="1">
          <mxGeometry x="240" y="570" width="120" height="60" as="geometry" />
        </mxCell>
        <mxCell id="nzNgzzk2PfuI0494MfuY-51" value="" style="edgeStyle=orthogonalEdgeStyle;rounded=0;orthogonalLoop=1;jettySize=auto;html=1;" edge="1" parent="1" source="nzNgzzk2PfuI0494MfuY-49" target="nzNgzzk2PfuI0494MfuY-50">
          <mxGeometry relative="1" as="geometry" />
        </mxCell>
        <mxCell id="nzNgzzk2PfuI0494MfuY-49" value="placeBuildingDown" style="rounded=0;whiteSpace=wrap;html=1;" vertex="1" parent="1">
          <mxGeometry x="440" y="110" width="120" height="60" as="geometry" />
        </mxCell>
        <mxCell id="nzNgzzk2PfuI0494MfuY-50" value="grid::addEntToGridSpace" style="whiteSpace=wrap;html=1;rounded=0;" vertex="1" parent="1">
          <mxGeometry x="425" y="10" width="150" height="60" as="geometry" />
        </mxCell>
      </root>
    </mxGraphModel>
  </diagram>
</mxfile>
